<?xml version="1.0" encoding="iso-8859-1"?>
<!-- Generator: Adobe Illustrator 18.0.0, SVG Export Plug-In . SVG Version: 6.00 Build 0)  -->
<!DOCTYPE svg PUBLIC "-//W3C//DTD SVG 1.1//EN" "http://www.w3.org/Graphics/SVG/1.1/DTD/svg11.dtd">
<svg version="1.1" id="Capa_1" xmlns="http://www.w3.org/2000/svg" xmlns:xlink="http://www.w3.org/1999/xlink" x="0px" y="0px"
	 viewBox="0 0 303.374 303.374" style="enable-background:new 0 0 303.374 303.374;" xml:space="preserve">
<g>
	<path d="M268.291,177.313c-4.144,0-8.12,0.727-11.814,2.052l-17.319-27.524c10.331-10.171,16.751-24.302,16.751-39.91
		c0-30.899-25.138-56.037-56.037-56.037s-56.037,25.138-56.037,56.037c0,12.226,3.947,23.54,10.617,32.762l-33.742,33.954
		c-4.438-2.404-9.515-3.771-14.907-3.771c-5.323,0-10.339,1.336-14.736,3.684l-19.721-20.688c5.93-7.037,9.514-16.113,9.514-26.014
		c0-22.293-18.137-40.43-40.43-40.43S0,109.565,0,131.858s18.136,40.43,40.429,40.43c5.854,0,11.416-1.261,16.444-3.509
		l21.387,22.436c-2.456,4.474-3.856,9.606-3.856,15.06c0,17.313,14.085,31.398,31.398,31.398s31.398-14.085,31.398-31.398
		c0-5.388-1.365-10.462-3.766-14.897l33.756-33.969c9.207,6.635,20.491,10.559,32.68,10.559c8.815,0,17.157-2.052,24.584-5.694
		l17.197,27.329c-5.258,6.136-8.446,14.097-8.446,22.793c0,19.345,15.739,35.084,35.084,35.084s35.083-15.739,35.083-35.084
		S287.636,177.313,268.291,177.313z M161.834,111.931c0-20.974,17.063-38.037,38.037-38.037s38.037,17.063,38.037,38.037
		s-17.063,38.037-38.037,38.037S161.834,132.904,161.834,111.931z M105.802,219.673c-7.388,0-13.398-6.011-13.398-13.398
		s6.011-13.398,13.398-13.398s13.398,6.011,13.398,13.398S113.19,219.673,105.802,219.673z M18,131.858
		c0-12.368,10.062-22.43,22.429-22.43s22.43,10.062,22.43,22.43s-10.062,22.43-22.43,22.43S18,144.226,18,131.858z M268.291,229.48
		c-9.42,0-17.084-7.664-17.084-17.084s7.664-17.084,17.084-17.084s17.083,7.664,17.083,17.084S277.71,229.48,268.291,229.48z"/>
</g>
<g>
</g>
<g>
</g>
<g>
</g>
<g>
</g>
<g>
</g>
<g>
</g>
<g>
</g>
<g>
</g>
<g>
</g>
<g>
</g>
<g>
</g>
<g>
</g>
<g>
</g>
<g>
</g>
<g>
</g>
</svg>
